<svg xmlns="http://www.w3.org/2000/svg" viewBox="0 0 79.39 79.39"><defs><style>.cls-1{fill:#f4971c;}.cls-2{fill:#fff;}.cls-3{fill:#2e358c;}</style></defs><g id="Capa_2" data-name="Capa 2"><g id="Capa_1-2" data-name="Capa 1"><rect class="cls-1" width="79.39" height="79.39" rx="18.95"/><path class="cls-2" d="M38.32,9.65a30,30,0,0,0,0,60.08c.91,0,1.81,0,2.71-.12v.12H68.36v-30A30,30,0,0,0,38.32,9.65Z"/><path class="cls-3" d="M39.59,60.44a28.81,28.81,0,0,1-21.3-9.72,3.37,3.37,0,1,1,5.05-4.45,22,22,0,0,0,16.25,7.44c6.79,0,14.59-3.72,16-6.66a3.37,3.37,0,0,1,6.09,2.88C58.68,56.22,47.84,60.44,39.59,60.44Z"/></g></g></svg>